<?xml version="1.0" encoding="UTF-8" standalone="no"?>
<svg
   width="40"
   height="20"
   version="1.1"
   viewBox="0 0 40 20"
   id="svg22"
   sodipodi:docname="toggle-off.svg"
   inkscape:version="1.1.1 (3bf5ae0d25, 2021-09-20, custom)"
   xmlns:inkscape="http://www.inkscape.org/namespaces/inkscape"
   xmlns:sodipodi="http://sodipodi.sourceforge.net/DTD/sodipodi-0.dtd"
   xmlns="http://www.w3.org/2000/svg"
   xmlns:svg="http://www.w3.org/2000/svg">
  <sodipodi:namedview
     id="namedview24"
     pagecolor="#ffffff"
     bordercolor="#666666"
     borderopacity="1.0"
     inkscape:pageshadow="2"
     inkscape:pageopacity="0.0"
     inkscape:pagecheckerboard="0"
     showgrid="false"
     inkscape:zoom="16"
     inkscape:cx="21.0625"
     inkscape:cy="10.71875"
     inkscape:window-width="1920"
     inkscape:window-height="1011"
     inkscape:window-x="0"
     inkscape:window-y="0"
     inkscape:window-maximized="1"
     inkscape:current-layer="svg22" />
  <defs
     id="defs5">
    <filter
       id="a"
       x="-1.2e-06"
       y="-1.2e-06"
       width="1.0000024"
       height="1.0000024"
       color-interpolation-filters="sRGB">
      <feGaussianBlur
         stdDeviation="1e-05"
         id="feGaussianBlur2" />
    </filter>
  </defs>
  <path
     id="rect7"
     style="opacity:1;fill:#b3b3b3;stroke-width:0.8;fill-opacity:1"
     d="M 14 3 C 10.122 3 7 6.122 7 10 C 7 13.878 10.122 17 14 17 L 26 17 C 29.878 17 33 13.878 33 10 C 33 6.122 29.878 3 26 3 L 14 3 z M 14 4 L 26 4 C 29.324 4 32 6.676 32 10 C 32 13.324 29.324 16 26 16 L 14 16 C 10.676 16 8 13.324 8 10 C 8 6.676 10.676 4 14 4 z " />
  <rect
     y="-2.0420117"
     width="40"
     height="28"
     fill-opacity="0"
     id="rect9"
     x="0"
     style="stroke-width:0.8" />
  <circle
     cx="35"
     cy="478.35999"
     r="10"
     filter="url(#a)"
     id="circle12"
     transform="matrix(0.79999809,0,0,0.79999809,-12.999933,-372.68707)"
     style="mix-blend-mode:normal;fill:#b3b3b3;fill-opacity:1;filter:url(#a)" />
  <circle
     cx="15"
     cy="10"
     r="7"
     id="circle14"
     style="fill:#ffffff;stroke-width:0.7" />
  <rect
     y="-2.0420117"
     width="40"
     height="28"
     fill-opacity="0"
     id="rect16"
     x="0"
     style="stroke-width:0.8" />
</svg>
