<?xml version="1.0" encoding="UTF-8" standalone="no"?>
<!-- Created with Inkscape (http://www.inkscape.org/) -->

<svg
   width="16"
   height="16"
   viewBox="0 0 4.2333333 4.2333335"
   version="1.1"
   id="svg5"
   inkscape:version="1.1.1 (3bf5ae0d25, 2021-09-20, custom)"
   sodipodi:docname="window-maximize.svg"
   xmlns:inkscape="http://www.inkscape.org/namespaces/inkscape"
   xmlns:sodipodi="http://sodipodi.sourceforge.net/DTD/sodipodi-0.dtd"
   xmlns="http://www.w3.org/2000/svg"
   xmlns:svg="http://www.w3.org/2000/svg">
  <sodipodi:namedview
     id="namedview7"
     pagecolor="#ffffff"
     bordercolor="#666666"
     borderopacity="1.0"
     inkscape:pageshadow="2"
     inkscape:pageopacity="0.0"
     inkscape:pagecheckerboard="0"
     inkscape:document-units="px"
     showgrid="false"
     units="px"
     height="24px"
     inkscape:zoom="25.09375"
     inkscape:cx="0.95641345"
     inkscape:cy="9.384807"
     inkscape:window-width="1920"
     inkscape:window-height="1011"
     inkscape:window-x="0"
     inkscape:window-y="0"
     inkscape:window-maximized="1"
     inkscape:current-layer="svg5" />
  <defs
     id="defs2" />
  <path
     id="rect846-1"
     style="fill:#808080;stroke-width:0.0855523"
     d="m 2.5068234,0.793803 c -0.070091,0.00349 -0.1255736,0.061287 -0.1255736,0.1322917 0,0.073287 0.059007,0.1322917 0.1322916,0.1322917 H 2.9879313 L 1.0583839,2.9880338 V 2.5135417 c 0,-0.073287 -0.059002,-0.1322917 -0.13229157,-0.1322917 -0.07329,0 -0.1322917,0.059007 -0.1322917,0.1322917 v 0.7390755 0.048059 c -1.139e-4,0.0023 0,0.00443 0,0.00672 0,0.073287 0.059002,0.1322917 0.1322917,0.1322917 h 0.054777 l 0.73892237,-5.3e-5 c 0.073289,2e-7 0.1322916,-0.059007 0.1322916,-0.1322914 0,-0.073287 -0.059002,-0.1322999 -0.1322916,-0.1322917 l -0.4743389,5.3e-5 1.9295475,-1.9296497 v 0.4743366 c 0,0.073287 0.058996,0.1322917 0.1322916,0.1322917 0.073287,0 0.1322917,-0.059007 0.1322917,-0.1322917 v -0.73892 -0.0480591 c 1.146e-4,-0.00229 0,-0.00443 0,-0.00672 0,-0.070996 -0.055484,-0.1287615 -0.1255737,-0.1322917 -0.00229,-1.145e-4 -0.00443,0 -0.00672,0 H 3.2525151 2.5135419 c -0.0023,0 -0.00443,-1.145e-4 -0.00672,0 z"
     sodipodi:nodetypes="cssccsssccssccssccsssccssscscc" />
</svg>
