<?xml version="1.0" encoding="UTF-8" standalone="no"?>
<!-- Created with Inkscape (http://www.inkscape.org/) -->

<svg
   width="16"
   height="16"
   viewBox="0 0 4.2333333 4.2333335"
   version="1.1"
   id="svg5"
   inkscape:version="1.1.1 (3bf5ae0d25, 2021-09-20, custom)"
   sodipodi:docname="window-restore.svg"
   xmlns:inkscape="http://www.inkscape.org/namespaces/inkscape"
   xmlns:sodipodi="http://sodipodi.sourceforge.net/DTD/sodipodi-0.dtd"
   xmlns="http://www.w3.org/2000/svg"
   xmlns:svg="http://www.w3.org/2000/svg">
  <sodipodi:namedview
     id="namedview7"
     pagecolor="#ffffff"
     bordercolor="#666666"
     borderopacity="1.0"
     inkscape:pageshadow="2"
     inkscape:pageopacity="0.0"
     inkscape:pagecheckerboard="0"
     inkscape:document-units="px"
     showgrid="false"
     units="px"
     height="24px"
     inkscape:zoom="22.627417"
     inkscape:cx="3.9774756"
     inkscape:cy="9.656427"
     inkscape:window-width="1920"
     inkscape:window-height="1011"
     inkscape:window-x="0"
     inkscape:window-y="0"
     inkscape:window-maximized="1"
     inkscape:current-layer="svg5" />
  <defs
     id="defs2" />
  <path
     id="rect846-1"
     style="fill:#808080;stroke-width:0.0855522"
     d="m 3.4007573,0.83257571 c 0.023937,0.0239369 0.038729,0.0570184 0.038733,0.0935443 3.6e-6,0.0350831 -0.013929,0.0687325 -0.038733,0.0935443 l -0.00365,0.00365 -0.7738032,0.7738149 h 0.3418898 c 0.073284,0 0.1322775,0.05899 0.1322775,0.1322776 -6e-7,0.071004 -0.055609,0.1287874 -0.1257002,0.1322775 -0.00229,1.132e-4 -0.00427,0 -0.00658,0 l -0.6068104,3.655e-4 -0.054446,-3.655e-4 c -0.00229,0 -0.00465,4.787e-4 -0.00694,3.655e-4 -0.035045,-0.00176 -0.066527,-0.017169 -0.089159,-0.040926 -0.022633,-0.023758 -0.036175,-0.056219 -0.036175,-0.091717 -1e-7,-0.00229 -1.132e-4,-0.00429 -1e-7,-0.00658 l -3.663e-4,-0.047868 3.653e-4,-0.6068179 c 10e-8,-0.073285 0.05899,-0.1322775 0.1322775,-0.1322776 0.073296,0 0.1322776,0.05899 0.1322777,0.1322777 l -10e-8,0.3418974 0.7738033,-0.77381502 3.654e-4,-3.6541e-4 3.655e-4,-3.6541e-4 3.654e-4,-3.6541e-4 3.654e-4,-3.654e-4 3.654e-4,-3.6541e-4 3.654e-4,-3.6541e-4 3.654e-4,-3.6541e-4 3.654e-4,-3.654e-4 3.654e-4,-3.6541e-4 3.654e-4,-3.6541e-4 c 0.024808,-0.0248086 0.05846,-0.0387374 0.093544,-0.0387332 0.036526,3.82e-6 0.069607,0.0147963 0.093544,0.0387332 z M 2.0229354,2.2104094 c 0.023908,0.023909 0.038733,0.056901 0.038733,0.093544 0,0.00229 1.202e-4,0.00427 0,0.00658 v 0.048234 0.606425 c 1e-7,0.073285 -0.058987,0.1322775 -0.1322776,0.1322777 -0.07329,2e-7 -0.1322775,-0.05899 -0.1322776,-0.1322776 l 10e-8,-0.3418701 -0.7727712,0.7727637 c -0.00152,0.00168 -0.00314,0.00314 -0.00475,0.00475 -0.050049,0.050049 -0.13040697,0.051671 -0.18233837,0.00475 -0.00168,-0.00152 -0.00314,-0.00314 -0.00475,-0.00475 -0.051663,-0.051663 -0.0353814,-0.1463252 0,-0.1870887 l 0.00475,-0.00475 0.77277117,-0.7727637 -0.3418839,2e-7 c -0.073289,4.9e-6 -0.1322775,-0.05899 -0.1322777,-0.1322777 -1e-7,-0.073284 0.058989,-0.1322774 0.1322777,-0.1322776 l 0.6064389,1e-7 h 0.054811 c 0.036645,-1e-7 0.069636,0.014825 0.093544,0.038733 z"
     sodipodi:nodetypes="cscccsscccccsscccsccccccccccccsscccscccscccscsccccsccscc" />
</svg>
